<?xml version="1.0" standalone="no"?>
<!DOCTYPE svg PUBLIC "-//W3C//DTD SVG 20010904//EN"
 "http://www.w3.org/TR/2001/REC-SVG-20010904/DTD/svg10.dtd">
<svg version="1.0" xmlns="http://www.w3.org/2000/svg"
 width="860.000000pt" height="999.000000pt" viewBox="0 0 860.000000 999.000000"
 preserveAspectRatio="xMidYMid meet">

<g transform="translate(0.000000,999.000000) scale(0.100000,-0.100000)"
fill="#000000" stroke="none">
<path d="M4070 9579 c-280 -29 -554 -110 -811 -240 -576 -292 -1016 -837
-1175 -1454 -63 -245 -68 -294 -68 -585 -1 -285 8 -359 69 -594 204 -785 854
-1428 1642 -1625 234 -58 296 -65 573 -65 272 0 334 6 560 61 446 107 897 389
1191 744 270 324 431 669 510 1094 31 161 37 484 14 665 -98 772 -570 1432
-1270 1776 -380 186 -817 265 -1235 223z m535 -654 c208 -38 451 -140 638
-267 110 -76 277 -234 362 -343 204 -264 319 -563 344 -895 38 -514 -168
-1020 -555 -1362 -217 -190 -506 -331 -789 -384 -140 -26 -480 -27 -610 -1
-128 26 -214 52 -336 103 -738 310 -1147 1101 -973 1884 73 326 226 595 475
835 248 238 552 387 900 440 122 18 419 13 544 -10z"/>
<path d="M2190 4639 c-570 -123 -1128 -529 -1446 -1049 -159 -261 -304 -686
-373 -1090 -40 -232 -78 -658 -66 -735 10 -68 60 -162 117 -219 88 -87 316
-206 658 -341 620 -245 1396 -417 2210 -489 363 -33 558 -40 1015 -40 678 0
1106 32 1715 130 747 120 1538 369 1993 627 127 72 200 143 245 240 41 86 43
107 31 285 -26 411 -95 808 -183 1057 -110 313 -157 422 -241 565 -300 505
-877 930 -1426 1051 -105 23 -340 28 -409 9 -24 -6 -119 -49 -210 -95 -209
-105 -354 -163 -551 -219 -293 -84 -550 -124 -864 -133 -280 -8 -540 15 -825
73 -262 53 -565 161 -800 286 -170 90 -202 99 -360 104 -110 3 -153 0 -230
-17z m565 -712 c364 -155 815 -254 1345 -298 466 -38 1298 99 1690 278 114 52
168 63 315 63 186 -1 342 -39 520 -127 294 -147 556 -435 687 -756 15 -37 43
-100 62 -140 74 -157 135 -393 161 -629 22 -201 20 -243 -15 -305 -52 -91
-126 -137 -360 -225 -1003 -378 -2522 -525 -3945 -383 -608 61 -1123 165
-1590 320 -381 126 -507 196 -555 306 -21 51 -22 57 -11 183 34 383 100 606
299 1002 162 323 438 575 752 689 141 51 230 65 400 62 155 -2 155 -2 245 -40z"/>
</g>
</svg>
