<svg version="1.2" xmlns="http://www.w3.org/2000/svg" viewBox="0 0 256 256" width="256" height="256"><style>.s0{fill:#8e2de2}</style><path class="s0" d="m243.4 132.4q-0.2 0.2-0.3 0.5q-0.1 0.1-0.2 0.2l-32.8 42.7c-1.6 2.2-4.1 3.3-6.7 3.3c-1.7 0-3.5-0.6-5.1-1.7c-3.7-2.9-4.3-8.1-1.5-11.8l22.4-29.2h-130.7c-4.6 0-8.4-3.8-8.4-8.4c0-4.6 3.8-8.4 8.4-8.4h130.7l-22.4-29.2c-2.8-3.7-2.2-8.9 1.5-11.8c3.7-2.8 9-2.1 11.8 1.6l32.8 42.7q0.1 0.1 0.2 0.2q0.1 0.3 0.3 0.5q0.2 0.4 0.4 0.8q0.2 0.3 0.3 0.6q0.1 0.5 0.3 0.9q0 0.3 0.1 0.6q0.1 0.7 0.1 1.5q0 0.8-0.1 1.5q-0.1 0.3-0.1 0.6q-0.2 0.4-0.3 0.9q-0.1 0.3-0.3 0.6q-0.2 0.4-0.4 0.8z" /><path class="s0" d="m171.2 254h-143c-4.7 0-8.4-3.7-8.4-8.4v-235.2c0-4.7 3.7-8.4 8.4-8.4h143c4.7 0 8.5 3.7 8.5 8.4v84.1c0 4.7-3.8 8.4-8.5 8.4c-4.6 0-8.4-3.7-8.4-8.4v-75.7h-126.2v218.4h126.2v-79.5c0-4.6 3.8-8.4 8.4-8.4c4.7 0 8.5 3.8 8.5 8.4v87.9c0 4.7-3.8 8.4-8.5 8.4z" /></svg>