<?xml version="1.0" standalone="no"?>
<!DOCTYPE svg PUBLIC "-//W3C//DTD SVG 20010904//EN"
 "http://www.w3.org/TR/2001/REC-SVG-20010904/DTD/svg10.dtd">
<svg version="1.0" xmlns="http://www.w3.org/2000/svg"
 width="512.000000pt" height="511.000000pt" viewBox="0 0 512.000000 511.000000"
 preserveAspectRatio="xMidYMid meet">

<g transform="translate(0.000000,511.000000) scale(0.100000,-0.100000)"
fill="#000000" stroke="none">
<path d="M3910 5094 c-175 -37 -344 -168 -428 -331 l-43 -83 -1680 0 -1679 0
-38 -34 -37 -34 -3 -125 c-4 -141 5 -174 61 -207 31 -20 63 -20 1709 -20
l1676 0 12 -34 c17 -54 87 -154 145 -212 69 -67 150 -116 250 -150 69 -24 96
-28 195 -28 99 0 126 4 195 28 100 34 181 83 250 150 58 58 128 158 145 212
l12 34 184 0 c202 0 225 5 260 57 14 21 19 52 22 128 5 121 -8 174 -49 209
-30 26 -31 26 -219 26 l-189 0 -43 83 c-132 256 -424 392 -708 331z m241 -437
c66 -35 102 -93 107 -171 15 -235 -291 -313 -400 -102 -16 31 -19 53 -16 102
7 116 91 194 208 194 40 0 70 -7 101 -23z"/>
<path d="M2400 3174 c-175 -46 -335 -176 -412 -335 l-33 -68 -925 -1 c-860 0
-927 -1 -960 -18 -55 -27 -70 -68 -70 -197 0 -127 14 -166 71 -197 32 -17 82
-18 959 -18 l925 0 32 -68 c75 -159 239 -292 418 -337 76 -19 222 -19 305 1
170 40 335 170 415 326 l40 78 926 0 926 0 34 23 c54 36 69 77 69 192 0 115
-15 156 -69 192 l-34 23 -926 0 -926 0 -40 78 c-80 156 -245 286 -415 326 -81
19 -237 19 -310 0z m263 -436 c22 -13 55 -43 72 -66 27 -39 30 -52 30 -117 0
-65 -3 -78 -30 -117 -97 -137 -293 -122 -369 29 -9 18 -16 56 -16 88 0 165
168 263 313 183z"/>
<path d="M966 1269 c-209 -35 -379 -163 -476 -358 l-31 -61 -182 0 c-201 0
-217 -4 -254 -59 -21 -30 -23 -46 -23 -148 0 -124 9 -155 56 -192 25 -20 39
-21 214 -21 l188 0 38 -77 c56 -113 169 -226 284 -282 328 -160 700 -34 861
292 l33 67 1682 0 1682 0 31 26 c41 35 54 88 49 209 -3 76 -8 107 -22 128 -41
61 79 57 -1749 57 l-1674 0 -38 78 c-55 111 -169 224 -285 281 -123 61 -257
82 -384 60z m189 -438 c101 -46 151 -169 109 -269 -33 -79 -110 -132 -194
-132 -108 0 -188 64 -214 172 -18 77 36 185 113 225 54 28 129 30 186 4z"/>
</g>
</svg>
