<?xml version="1.0" standalone="no"?>
<!DOCTYPE svg PUBLIC "-//W3C//DTD SVG 20010904//EN"
 "http://www.w3.org/TR/2001/REC-SVG-20010904/DTD/svg10.dtd">
<svg version="1.0" xmlns="http://www.w3.org/2000/svg"
 width="848.000000pt" height="980.000000pt" viewBox="0 0 848.000000 980.000000"
 preserveAspectRatio="xMidYMid meet">

<g transform="translate(0.000000,980.000000) scale(0.100000,-0.100000)"
fill="#000000" stroke="none">
<path d="M4022 9790 c-207 -20 -385 -60 -607 -135 -737 -249 -1256 -737 -1533
-1441 -92 -234 -157 -480 -186 -704 -8 -63 -23 -293 -31 -510 -9 -217 -19
-409 -21 -426 l-4 -31 -228 -6 c-320 -8 -461 -36 -652 -132 -351 -177 -582
-434 -689 -767 -70 -219 -65 -64 -69 -2303 -3 -2095 -2 -2166 38 -2327 67
-270 257 -564 474 -732 212 -164 425 -243 719 -266 101 -8 1011 -10 3117 -8
l2975 4 93 21 c268 62 457 163 650 347 166 159 270 319 336 516 76 228 71 48
71 2385 0 2305 4 2142 -60 2341 -82 250 -261 501 -467 654 -152 114 -382 212
-569 244 -48 8 -174 18 -282 22 l-195 7 -5 411 c-6 506 -25 685 -97 947 -267
967 -1009 1656 -1987 1844 -225 44 -591 64 -791 45z m558 -716 c352 -50 684
-196 950 -420 310 -259 540 -656 625 -1076 39 -195 46 -315 43 -688 l-3 -345
-1922 -3 -1923 -2 0 64 c0 155 22 633 35 757 38 367 155 695 343 959 78 110
244 286 352 373 395 318 946 458 1500 381z m2725 -3259 c33 -8 96 -33 141 -55
144 -70 259 -216 311 -395 17 -56 18 -184 21 -2067 3 -2250 8 -2081 -73 -2244
-77 -157 -202 -264 -372 -320 l-88 -29 -3000 0 c-2832 0 -3004 1 -3065 18
-217 58 -388 218 -453 422 l-22 70 0 2050 0 2050 24 75 c29 94 47 130 105 206
75 100 191 178 321 215 56 17 245 18 3075 18 2658 1 3023 -1 3075 -14z"/>
<path d="M4076 4571 c-257 -72 -426 -243 -486 -491 -24 -102 -26 -238 -5 -328
29 -124 119 -262 225 -347 34 -27 66 -57 71 -67 5 -9 9 -226 9 -495 1 -528 7
-649 38 -709 28 -54 101 -120 170 -152 49 -23 70 -27 147 -27 84 0 95 2 153
34 75 41 143 113 168 179 17 43 19 97 24 610 l5 564 40 31 c136 104 227 242
260 393 24 104 17 273 -14 364 -68 199 -232 363 -431 431 -93 32 -277 37 -374
10z"/>
</g>
</svg>
